<svg width="46" height="46" viewBox="0 0 46 46" fill="none" xmlns="http://www.w3.org/2000/svg">
<circle cx="23" cy="23" r="23" fill="#F4F3F6"/>
<path d="M31.5739 16.8796C31.4551 16.7598 31.3138 16.6647 31.1581 16.5999C31.0023 16.535 30.8353 16.5016 30.6666 16.5016C30.498 16.5016 30.331 16.535 30.1752 16.5999C30.0195 16.6647 29.8782 16.7598 29.7594 16.8796L20.24 26.4118L16.2405 22.3996C16.1172 22.2804 15.9716 22.1867 15.8121 22.1239C15.6525 22.061 15.4822 22.0302 15.3107 22.0331C15.1393 22.0361 14.9701 22.0728 14.8128 22.1412C14.6556 22.2095 14.5133 22.3082 14.3941 22.4315C14.275 22.5548 14.1813 22.7004 14.1185 22.86C14.0556 23.0195 14.0248 23.1899 14.0277 23.3613C14.0307 23.5328 14.0674 23.7019 14.1357 23.8592C14.2041 24.0165 14.3028 24.1587 14.4261 24.2779L19.3328 29.1846C19.4515 29.3043 19.5929 29.3994 19.7486 29.4642C19.9043 29.5291 20.0713 29.5625 20.24 29.5625C20.4087 29.5625 20.5757 29.5291 20.7314 29.4642C20.8871 29.3994 21.0284 29.3043 21.1472 29.1846L31.5739 18.7579C31.7036 18.6382 31.8071 18.493 31.8779 18.3314C31.9487 18.1697 31.9852 17.9952 31.9852 17.8187C31.9852 17.6423 31.9487 17.4677 31.8779 17.3061C31.8071 17.1444 31.7036 16.9992 31.5739 16.8796V16.8796Z" fill="#28A745"/>
</svg>
